# xmcd
#
# Track frame offsets: 
#        150
#        11570
#        25365
#        35182
#        45517
#        58695
#        70065
#        81042
#        90312
#        98495
#
# Disc length: 1425 seconds
#
# Revision: 1
# Processed by: cddbd v1.5.1PL0 Copyright (c) Steve Scherf et al.
# Submitted via: ExactAudioCopy v0.95a5
#
DISCID=72058f0a
DTITLE=Grandpa Jones - Pickin' Time
DYEAR=1999
DGENRE=Bluegrass
TTITLE0=All American Boy
TTITLE1=Dark As A Dungeon
TTITLE2=Mountain Dew
TTITLE3=Eight More Miles To Louisville
TTITLE4=Don't Bring Your Banjo Home
TTITLE5=The Huntin's Over For Tonight
TTITLE6=Old Rattler's Pup
TTITLE7=Pickin' Time
TTITLE8=Old Towzer
TTITLE9=Waiting For A Train
EXTD=YEAR: 1999 ID3G: 2
EXTT0=
EXTT1=
EXTT2=
EXTT3=
EXTT4=
EXTT5=
EXTT6=
EXTT7=
EXTT8=
EXTT9=
PLAYORDER=
